<svg width="30" height="30" viewBox="0 0 30 30" fill="none" xmlns="http://www.w3.org/2000/svg">
<rect width="30" height="30" rx="15" fill="#121212"/>
<path fill-rule="evenodd" clip-rule="evenodd" d="M13.2368 0.0192168C8.74935 0.690341 5.06482 2.93249 2.65175 6.46057C0.173078 10.0846 -0.609553 14.5349 0.479988 18.8097C1.72277 23.6859 5.4769 27.7003 10.3013 29.3123C12.0666 29.9021 12.739 30 15.0237 30C16.8303 30 17.1687 29.9776 17.9592 29.8054C19.9747 29.3664 22.0786 28.4548 23.66 27.3352C24.8768 26.4738 26.6251 24.6774 27.4271 23.4646C30.4026 18.9648 30.8244 13.3611 28.5509 8.53616C26.7735 4.76409 23.3917 1.81218 19.4716 0.611203C17.9689 0.150825 17.1926 0.0393852 15.2789 0.00921754C14.2962 -0.00625087 13.3772 -0.00180654 13.2368 0.0192168ZM14.896 1.59135C12.7369 1.8544 10.5602 2.67859 8.72723 3.92717C8.28401 4.2291 7.52946 4.8816 6.93597 5.47606C5.01088 7.4044 3.83149 9.58049 3.21826 12.3352C3.05855 13.0528 3.03286 13.4259 3.03439 15.0067C3.03584 16.5834 3.06264 16.9642 3.22362 17.6912C4.20663 22.1318 7.06208 25.6365 11.1332 27.3993C16.5041 29.725 22.8413 28.1893 26.5755 23.6571C27.3601 22.7049 27.3332 22.7007 26.4038 23.6304C24.7129 25.3219 22.5188 26.4684 20.0864 26.9319C18.9915 27.1404 16.9278 27.1431 15.8776 26.9373C11.9948 26.1766 8.8324 23.7927 7.1652 20.3698C5.86796 17.7065 5.56531 14.8994 6.27196 12.0848C7.44233 7.42321 11.183 3.93367 15.935 3.07068C17.1197 2.85549 19.1079 2.87865 20.2565 3.1211C22.7008 3.63686 24.7206 4.70837 26.401 6.38084C27.3154 7.29082 27.3432 7.29493 26.632 6.4146C24.7137 4.03998 21.8869 2.35247 18.8369 1.76099C17.7804 1.55614 15.8627 1.47359 14.896 1.59135ZM17.5271 4.62231C16.1159 4.89049 14.5677 5.52785 13.407 6.31854C12.6802 6.81361 11.4357 8.0498 10.8707 8.8381C9.53675 10.6989 8.90319 12.6853 8.90319 15.0067C8.90319 17.9041 9.90577 20.3337 11.9574 22.4079C12.8837 23.3444 13.7401 23.9671 14.8347 24.5001C19.1091 26.5814 24.3856 25.389 27.3382 21.6747C28.1689 20.6296 28.278 20.361 27.5659 21.1143C26.7777 21.948 26.1547 22.4321 25.2434 22.919C23.8855 23.6445 22.5507 23.9801 21.0223 23.9801C16.934 23.9801 13.4296 21.2537 12.3671 17.2462C12.1756 16.5243 12.1465 16.2395 12.1425 15.0494C12.1385 13.9246 12.17 13.5531 12.3198 12.9556C12.7214 11.3531 13.4372 10.0251 14.5286 8.85809C17.308 5.88627 21.6459 5.17225 25.2434 7.09435C26.1547 7.58122 26.7777 8.06536 27.5659 8.89903C28.2918 9.66689 28.1655 9.37299 27.313 8.31071C25.9454 6.60662 23.9959 5.3589 21.7881 4.77486C20.7637 4.50378 18.5649 4.42515 17.5271 4.62231ZM18.257 7.69241C16.784 8.02861 15.47 8.78297 14.4373 9.88559C13.6054 10.7738 13.4361 11.0858 14.1265 10.4583C16.6677 8.14851 20.8831 8.53471 22.9404 11.2659C23.8015 12.409 24.207 13.6064 24.207 15.0067C24.207 16.0342 24.0581 16.7039 23.6274 17.6132C21.9034 21.2541 17.0804 22.2399 14.1265 19.5551C13.4335 18.9252 13.6063 19.24 14.4476 20.14C15.4788 21.2433 16.8276 22.0258 18.2027 22.3185C19.0449 22.4978 20.5787 22.4757 21.4244 22.272C25.6242 21.2608 28.0442 16.7891 26.6633 12.5921C26.2563 11.3555 25.379 10.0803 24.3415 9.21711C23.721 8.70093 22.3497 7.98579 21.5754 7.77462C20.8819 7.5855 18.9367 7.53729 18.257 7.69241ZM15.7564 10.5269C14.7326 10.8034 13.598 11.6628 13.1203 12.5237L12.9187 12.8871L13.3542 12.5862C13.9597 12.1677 14.3218 12.0596 15.1088 12.0621C15.9494 12.0648 16.5655 12.3205 17.1531 12.9106C17.7555 13.5156 17.9981 14.1174 17.9981 15.0067C17.9981 15.896 17.7555 16.4977 17.1531 17.1027C16.5498 17.7087 15.9515 17.9516 15.0662 17.9502C14.2592 17.9488 13.7897 17.7877 13.1805 17.3031L12.8398 17.0322L13.1182 17.4865C13.9292 18.8103 15.3473 19.6215 16.8506 19.6215C18.1041 19.6215 19.0161 19.2415 19.9244 18.3407C21.3693 16.9077 21.6945 14.7041 20.7443 12.7847C20.1998 11.6848 18.981 10.7312 17.8061 10.486C17.1971 10.3588 16.3135 10.3764 15.7564 10.5269Z" fill="#C5F955"/>
</svg>
