<svg width="25" height="24" viewBox="0 0 25 24" fill="none" xmlns="http://www.w3.org/2000/svg">
<path d="M12.6666 2C7.15663 2 2.66663 6.49 2.66663 12C2.66663 17.51 7.15663 22 12.6666 22C18.1766 22 22.6666 17.51 22.6666 12C22.6666 6.49 18.1766 2 12.6666 2ZM11.9166 8C11.9166 7.59 12.2566 7.25 12.6666 7.25C13.0766 7.25 13.4166 7.59 13.4166 8V13C13.4166 13.41 13.0766 13.75 12.6666 13.75C12.2566 13.75 11.9166 13.41 11.9166 13V8ZM13.5866 16.38C13.5366 16.51 13.4666 16.61 13.3766 16.71C13.2766 16.8 13.1666 16.87 13.0466 16.92C12.9266 16.97 12.7966 17 12.6666 17C12.5366 17 12.4066 16.97 12.2866 16.92C12.1666 16.87 12.0566 16.8 11.9566 16.71C11.8666 16.61 11.7966 16.51 11.7466 16.38C11.6966 16.26 11.6666 16.13 11.6666 16C11.6666 15.87 11.6966 15.74 11.7466 15.62C11.7966 15.5 11.8666 15.39 11.9566 15.29C12.0566 15.2 12.1666 15.13 12.2866 15.08C12.5266 14.98 12.8066 14.98 13.0466 15.08C13.1666 15.13 13.2766 15.2 13.3766 15.29C13.4666 15.39 13.5366 15.5 13.5866 15.62C13.6366 15.74 13.6666 15.87 13.6666 16C13.6666 16.13 13.6366 16.26 13.5866 16.38Z" fill="#C5F955"/>
</svg>
