<svg width="183" height="40" viewBox="0 0 183 40" fill="none" xmlns="http://www.w3.org/2000/svg">
<path fill-rule="evenodd" clip-rule="evenodd" d="M17.6491 0.0256225C11.6658 0.920455 6.7531 3.90999 3.53567 8.6141C0.23077 13.4462 -0.812737 19.3799 0.639984 25.0796C2.29703 31.5812 7.30253 36.9338 13.7351 39.0831C16.0889 39.8695 16.9853 40 20.0316 40C22.4404 40 22.8916 39.9701 23.9456 39.7405C26.633 39.1552 29.4381 37.9397 31.5467 36.4469C33.169 35.2984 35.5001 32.9032 36.5694 31.2862C40.5368 25.2864 41.0993 17.8148 38.0679 11.3815C35.698 6.35212 31.1889 2.41625 25.9621 0.814938C23.9585 0.201101 22.9235 0.0525136 20.3719 0.0122901C19.0616 -0.0083345 17.8363 -0.00240871 17.6491 0.0256225ZM19.8614 2.12181C16.9825 2.47254 14.0802 3.57145 11.6363 5.23623C11.0453 5.63881 10.0393 6.5088 9.24797 7.30142C6.68117 9.87254 5.10865 12.774 4.29102 16.447C4.07807 17.4037 4.04381 17.9012 4.04585 20.0089C4.04778 22.1112 4.08352 22.619 4.29816 23.5883C5.60885 29.5091 9.4161 34.1819 14.8443 36.5325C22.0055 39.6333 30.4551 37.5857 35.434 31.5428C36.4802 30.2732 36.4443 30.2676 35.2051 31.5072C32.9505 33.7625 30.0251 35.2912 26.7818 35.9092C25.3219 36.1872 22.5705 36.1908 21.1702 35.9165C15.9931 34.9021 11.7765 31.7236 9.5536 27.1598C7.82395 23.6087 7.42041 19.8659 8.36261 16.1131C9.92311 9.89761 14.9107 5.24489 21.2467 4.09424C22.8263 3.80732 25.4771 3.8382 27.0087 4.16147C30.2678 4.84915 32.9608 6.27782 35.2014 8.50778C36.4205 9.7211 36.4576 9.72657 35.5094 8.55279C32.9515 5.38664 29.1825 3.13663 25.1158 2.34799C23.7072 2.07486 21.1503 1.96479 19.8614 2.12181ZM23.3695 6.16308C21.4879 6.52065 19.4236 7.37047 17.876 8.42472C16.9069 9.08482 15.2476 10.7331 14.4942 11.7841C12.7157 14.2652 11.8709 16.9137 11.8709 20.0089C11.8709 23.8722 13.2077 27.1116 15.9432 29.8772C17.1782 31.1259 18.3201 31.9562 19.7796 32.6668C25.4788 35.4419 32.5141 33.8521 36.4509 28.8995C37.5585 27.5061 37.7039 27.1481 36.7545 28.1524C35.7036 29.264 34.8729 29.9095 33.6579 30.5586C31.8473 31.526 30.0675 31.9734 28.0298 31.9734C22.5786 31.9734 17.9061 28.3382 16.4895 22.995C16.2342 22.0324 16.1954 21.6527 16.1899 20.0659C16.1847 18.5662 16.2267 18.0709 16.4264 17.2741C16.9619 15.1375 17.9163 13.3669 19.3715 11.8108C23.0774 7.84837 28.8612 6.89633 33.6579 9.45913C34.8729 10.1083 35.7036 10.7538 36.7545 11.8654C37.7224 12.8892 37.554 12.4973 36.4173 11.081C34.5938 8.80883 31.9945 7.1452 29.0508 6.36648C27.685 6.00503 24.7532 5.9002 23.3695 6.16308ZM24.3427 10.2565C22.3786 10.7048 20.6267 11.7106 19.2498 13.1808C18.1406 14.365 17.9148 14.7811 18.8354 13.9444C22.2236 10.8647 27.8442 11.3796 30.5871 15.0212C31.7354 16.5453 32.2759 18.1418 32.2759 20.0089C32.2759 21.3789 32.0774 22.2719 31.5032 23.4843C29.2045 28.3388 22.7739 29.6532 18.8354 26.0734C17.9113 25.2336 18.1417 25.6533 19.2634 26.8533C20.6384 28.3243 22.4368 29.3678 24.2703 29.758C25.3932 29.9971 27.4382 29.9676 28.5659 29.696C34.1656 28.3477 37.3923 22.3855 35.551 16.7895C35.0084 15.1407 33.8387 13.4404 32.4553 12.2895C31.628 11.6012 29.7996 10.6477 28.7672 10.3662C27.8426 10.114 25.2489 10.0497 24.3427 10.2565ZM21.0086 14.0358C19.6435 14.4046 18.1306 15.5504 17.4937 16.6982L17.2249 17.1827L17.8056 16.7815C18.613 16.2236 19.0957 16.0795 20.145 16.0828C21.2659 16.0863 22.0874 16.4273 22.8708 17.2142C23.674 18.0208 23.9974 18.8231 23.9974 20.0089C23.9974 21.1946 23.674 21.9969 22.8708 22.8036C22.0664 23.6116 21.2686 23.9355 20.0883 23.9336C19.0122 23.9318 18.3862 23.717 17.574 23.0708L17.1198 22.7096L17.4909 23.3153C18.5723 25.0804 20.4631 26.1621 22.4674 26.1621C24.1388 26.1621 25.3548 25.6553 26.5658 24.4543C28.4924 22.5437 28.926 19.6055 27.659 17.0462C26.933 15.5797 25.308 14.3083 23.7415 13.9813C22.9294 13.8117 21.7514 13.8352 21.0086 14.0358Z" fill="#C5F955"/>
<path d="M51.768 29.5V11.144H55.85V29.5H51.768ZM54.888 22.298V18.788H64.066V22.298H54.888ZM54.888 14.654V11.144H64.482V14.654H54.888ZM71.6117 29.76C70.4504 29.76 69.4104 29.474 68.4917 28.902C67.5904 28.33 66.871 27.55 66.3337 26.562C65.8137 25.574 65.5537 24.4473 65.5537 23.182C65.5537 21.9167 65.8137 20.79 66.3337 19.802C66.871 18.814 67.5904 18.034 68.4917 17.462C69.4104 16.89 70.4504 16.604 71.6117 16.604C72.461 16.604 73.2237 16.7687 73.8997 17.098C74.593 17.4273 75.1564 17.8867 75.5897 18.476C76.023 19.048 76.2657 19.7067 76.3177 20.452V25.912C76.2657 26.6573 76.023 27.3247 75.5897 27.914C75.1737 28.486 74.619 28.9367 73.9257 29.266C73.2324 29.5953 72.461 29.76 71.6117 29.76ZM72.4177 26.172C73.267 26.172 73.9517 25.8947 74.4717 25.34C74.9917 24.768 75.2517 24.0487 75.2517 23.182C75.2517 22.5927 75.1304 22.0727 74.8877 21.622C74.6624 21.1713 74.333 20.8247 73.8997 20.582C73.4837 20.322 72.9984 20.192 72.4437 20.192C71.889 20.192 71.395 20.322 70.9617 20.582C70.5457 20.8247 70.2077 21.1713 69.9477 21.622C69.705 22.0727 69.5837 22.5927 69.5837 23.182C69.5837 23.754 69.705 24.2653 69.9477 24.716C70.1904 25.1667 70.5284 25.522 70.9617 25.782C71.395 26.042 71.8804 26.172 72.4177 26.172ZM75.0957 29.5V26.094L75.6937 23.026L75.0957 19.958V16.864H78.9957V29.5H75.0957ZM86.3986 29.812C85.6532 29.812 84.9166 29.7167 84.1886 29.526C83.4779 29.3353 82.8106 29.0667 82.1866 28.72C81.5799 28.356 81.0599 27.94 80.6266 27.472L82.8886 25.184C83.3046 25.6347 83.7986 25.99 84.3706 26.25C84.9426 26.4927 85.5666 26.614 86.2426 26.614C86.7106 26.614 87.0659 26.5447 87.3086 26.406C87.5686 26.2673 87.6986 26.0767 87.6986 25.834C87.6986 25.522 87.5426 25.288 87.2306 25.132C86.9359 24.9587 86.5546 24.8113 86.0866 24.69C85.6186 24.5513 85.1246 24.404 84.6046 24.248C84.0846 24.092 83.5906 23.8753 83.1226 23.598C82.6546 23.3207 82.2732 22.9393 81.9786 22.454C81.6839 21.9513 81.5366 21.3187 81.5366 20.556C81.5366 19.7413 81.7446 19.0393 82.1606 18.45C82.5766 17.8433 83.1659 17.3667 83.9286 17.02C84.6912 16.6733 85.5839 16.5 86.6066 16.5C87.6812 16.5 88.6692 16.6907 89.5706 17.072C90.4892 17.436 91.2346 17.982 91.8066 18.71L89.5446 20.998C89.1459 20.53 88.6952 20.2007 88.1926 20.01C87.7072 19.8193 87.2306 19.724 86.7626 19.724C86.3119 19.724 85.9739 19.7933 85.7486 19.932C85.5232 20.0533 85.4106 20.2353 85.4106 20.478C85.4106 20.738 85.5579 20.946 85.8526 21.102C86.1472 21.258 86.5286 21.3967 86.9966 21.518C87.4646 21.6393 87.9586 21.7867 88.4786 21.96C88.9986 22.1333 89.4926 22.3673 89.9606 22.662C90.4286 22.9567 90.8099 23.3553 91.1046 23.858C91.3992 24.3433 91.5466 24.9847 91.5466 25.782C91.5466 27.0127 91.0786 27.992 90.1426 28.72C89.2239 29.448 87.9759 29.812 86.3986 29.812ZM102.051 29.5V22.298C102.051 21.6393 101.843 21.1107 101.427 20.712C101.028 20.296 100.517 20.088 99.8928 20.088C99.4594 20.088 99.0781 20.1833 98.7488 20.374C98.4194 20.5473 98.1594 20.8073 97.9688 21.154C97.7781 21.4833 97.6828 21.8647 97.6828 22.298L96.1488 21.544C96.1488 20.556 96.3568 19.6893 96.7728 18.944C97.1888 18.1987 97.7694 17.6267 98.5148 17.228C99.2601 16.812 100.118 16.604 101.089 16.604C102.077 16.604 102.943 16.812 103.689 17.228C104.434 17.6267 105.006 18.19 105.405 18.918C105.821 19.6287 106.029 20.4607 106.029 21.414V29.5H102.051ZM93.7048 29.5V10.624H97.6828V29.5H93.7048ZM108.584 29.5V16.864H112.562V29.5H108.584ZM110.586 15.122C109.962 15.122 109.442 14.914 109.026 14.498C108.627 14.0647 108.428 13.5447 108.428 12.938C108.428 12.314 108.627 11.794 109.026 11.378C109.442 10.962 109.962 10.754 110.586 10.754C111.21 10.754 111.721 10.962 112.12 11.378C112.518 11.794 112.718 12.314 112.718 12.938C112.718 13.5447 112.518 14.0647 112.12 14.498C111.721 14.914 111.21 15.122 110.586 15.122ZM121.447 29.786C120.147 29.786 118.968 29.5 117.911 28.928C116.871 28.3387 116.048 27.5413 115.441 26.536C114.834 25.5307 114.531 24.404 114.531 23.156C114.531 21.908 114.834 20.79 115.441 19.802C116.048 18.814 116.871 18.034 117.911 17.462C118.951 16.8727 120.13 16.578 121.447 16.578C122.764 16.578 123.943 16.864 124.983 17.436C126.023 18.008 126.846 18.7967 127.453 19.802C128.06 20.79 128.363 21.908 128.363 23.156C128.363 24.404 128.06 25.5307 127.453 26.536C126.846 27.5413 126.023 28.3387 124.983 28.928C123.943 29.5 122.764 29.786 121.447 29.786ZM121.447 26.172C122.019 26.172 122.522 26.0507 122.955 25.808C123.388 25.548 123.718 25.1927 123.943 24.742C124.186 24.274 124.307 23.7453 124.307 23.156C124.307 22.5667 124.186 22.0553 123.943 21.622C123.7 21.1713 123.362 20.8247 122.929 20.582C122.513 20.322 122.019 20.192 121.447 20.192C120.892 20.192 120.398 20.322 119.965 20.582C119.532 20.8247 119.194 21.1713 118.951 21.622C118.708 22.0727 118.587 22.5927 118.587 23.182C118.587 23.754 118.708 24.274 118.951 24.742C119.194 25.1927 119.532 25.548 119.965 25.808C120.398 26.0507 120.892 26.172 121.447 26.172ZM138.689 29.5V22.298C138.689 21.6393 138.481 21.1107 138.065 20.712C137.667 20.296 137.155 20.088 136.531 20.088C136.098 20.088 135.717 20.1833 135.387 20.374C135.058 20.5473 134.798 20.8073 134.607 21.154C134.417 21.4833 134.321 21.8647 134.321 22.298L132.787 21.544C132.787 20.556 133.004 19.6893 133.437 18.944C133.871 18.1987 134.469 17.6267 135.231 17.228C136.011 16.812 136.887 16.604 137.857 16.604C138.793 16.604 139.617 16.8293 140.327 17.28C141.055 17.7133 141.627 18.294 142.043 19.022C142.459 19.75 142.667 20.5473 142.667 21.414V29.5H138.689ZM130.343 29.5V16.864H134.321V29.5H130.343ZM155.348 29.786C154.082 29.786 152.921 29.5693 151.864 29.136C150.806 28.6853 149.914 28.044 149.186 27.212L151.812 24.586C152.141 25.0713 152.618 25.47 153.242 25.782C153.883 26.0767 154.559 26.224 155.27 26.224C155.911 26.224 156.466 26.1113 156.934 25.886C157.402 25.6607 157.766 25.34 158.026 24.924C158.303 24.508 158.442 24.014 158.442 23.442C158.442 22.87 158.303 22.3847 158.026 21.986C157.766 21.57 157.376 21.2493 156.856 21.024C156.353 20.7987 155.746 20.686 155.036 20.686C154.706 20.686 154.36 20.712 153.996 20.764C153.649 20.7987 153.354 20.8593 153.112 20.946L154.906 18.684C155.391 18.5453 155.85 18.4327 156.284 18.346C156.734 18.242 157.15 18.19 157.532 18.19C158.468 18.19 159.308 18.4153 160.054 18.866C160.799 19.2993 161.388 19.9233 161.822 20.738C162.272 21.5353 162.498 22.4887 162.498 23.598C162.498 24.8113 162.194 25.886 161.588 26.822C160.998 27.758 160.166 28.486 159.092 29.006C158.034 29.526 156.786 29.786 155.348 29.786ZM153.112 20.946V18.684L157.584 13.432L162.16 13.406L157.506 18.71L153.112 20.946ZM150.33 14.602V11.144H162.16V13.406L158.962 14.602H150.33ZM167.817 29.5V25.912H172.367C173.476 25.912 174.447 25.6953 175.279 25.262C176.111 24.8113 176.752 24.1613 177.203 23.312C177.654 22.4627 177.879 21.4573 177.879 20.296C177.879 19.1347 177.645 18.138 177.177 17.306C176.726 16.474 176.085 15.8327 175.253 15.382C174.438 14.9313 173.476 14.706 172.367 14.706H167.687V11.144H172.419C173.806 11.144 175.08 11.3693 176.241 11.82C177.42 12.2533 178.442 12.886 179.309 13.718C180.193 14.5327 180.869 15.5033 181.337 16.63C181.822 17.7393 182.065 18.97 182.065 20.322C182.065 21.6567 181.822 22.8873 181.337 24.014C180.869 25.1407 180.202 26.1113 179.335 26.926C178.468 27.7407 177.446 28.3733 176.267 28.824C175.106 29.2747 173.84 29.5 172.471 29.5H167.817ZM165.061 29.5V11.144H169.143V29.5H165.061Z" fill="white"/>
</svg>
