<svg width="23" height="22" viewBox="0 0 23 22" fill="none" xmlns="http://www.w3.org/2000/svg">
<path d="M21.1258 11.2137C21.1258 10.4224 21.0603 9.84485 20.9185 9.24597H11.6973V12.8179H17.1099C17.0008 13.7055 16.4115 15.0424 15.102 15.9406L15.0836 16.0602L17.9992 18.2737L18.2012 18.2935C20.0563 16.6144 21.1258 14.144 21.1258 11.2137Z" fill="#4285F4"/>
<path d="M11.6976 20.625C14.3494 20.625 16.5755 19.7694 18.2016 18.2936L15.1024 15.9408C14.273 16.5076 13.1599 16.9033 11.6976 16.9033C9.10043 16.9033 6.89609 15.2243 6.11031 12.9036L5.99513 12.9131L2.96347 15.2125L2.92383 15.3205C4.53888 18.4647 7.85634 20.625 11.6976 20.625Z" fill="#34A853"/>
<path d="M6.10908 12.9036C5.90174 12.3047 5.78175 11.663 5.78175 11C5.78175 10.3369 5.90174 9.69524 6.09817 9.09636L6.09268 8.96881L3.02303 6.63257L2.92259 6.67938C2.25695 7.98412 1.875 9.44929 1.875 11C1.875 12.5507 2.25695 14.0158 2.92259 15.3205L6.10908 12.9036Z" fill="#FBBC05"/>
<path d="M11.6977 5.09664C13.5419 5.09664 14.7859 5.87733 15.4953 6.52974L18.2671 3.8775C16.5648 2.32681 14.3494 1.375 11.6977 1.375C7.85637 1.375 4.53889 3.53526 2.92383 6.6794L6.09942 9.09638C6.89612 6.77569 9.10047 5.09664 11.6977 5.09664Z" fill="#EB4335"/>
</svg>
