<svg width="25" height="24" viewBox="0 0 25 24" fill="none" xmlns="http://www.w3.org/2000/svg">
<path d="M21.9188 0C22.626 0 23.3043 0.280951 23.8044 0.781048C24.3045 1.28115 24.5854 1.95942 24.5854 2.66667V21.3333C24.5854 22.0406 24.3045 22.7189 23.8044 23.219C23.3043 23.719 22.626 24 21.9188 24H3.25212C2.54487 24 1.86659 23.719 1.3665 23.219C0.866401 22.7189 0.585449 22.0406 0.585449 21.3333V2.66667C0.585449 1.95942 0.866401 1.28115 1.3665 0.781048C1.86659 0.280951 2.54487 0 3.25212 0H21.9188ZM21.2521 20.6667V13.6C21.2521 12.4472 20.7942 11.3416 19.979 10.5264C19.1638 9.71128 18.0583 9.25333 16.9054 9.25333C15.7721 9.25333 14.4521 9.94667 13.8121 10.9867V9.50667H10.0921V20.6667H13.8121V14.0933C13.8121 13.0667 14.6388 12.2267 15.6655 12.2267C16.1605 12.2267 16.6353 12.4233 16.9854 12.7734C17.3355 13.1235 17.5321 13.5983 17.5321 14.0933V20.6667H21.2521ZM5.75878 7.41333C6.35287 7.41333 6.92262 7.17733 7.3427 6.75725C7.76278 6.33717 7.99878 5.76742 7.99878 5.17333C7.99878 3.93333 6.99878 2.92 5.75878 2.92C5.16116 2.92 4.58802 3.1574 4.16544 3.57999C3.74285 4.00257 3.50545 4.57571 3.50545 5.17333C3.50545 6.41333 4.51878 7.41333 5.75878 7.41333ZM7.61212 20.6667V9.50667H3.91878V20.6667H7.61212Z" fill="white"/>
</svg>
